<svg xmlns="http://www.w3.org/2000/svg" xmlns:xlink="http://www.w3.org/1999/xlink" viewBox="0 0 400 300" width="406" height="306" class="illustration styles_illustrationTablet__1DWOa"><defs><linearGradient id="linear-gradient" x1="137.27" y1="249.4" x2="157.66" y2="226.06" gradientUnits="userSpaceOnUse"><stop offset="0" stop-color="#fff" stop-opacity="0"></stop><stop offset="0.99" stop-color="gray"></stop></linearGradient></defs><title>PP</title><g style="isolation: isolate;"><g id="Layer_2" data-name="Layer 2"><path d="M194.28,288.83,14.56,182.61c-5.72-3.21-10.63-8.49-5.05-11.94l180.37-104c2.71-1.68,6.82-2.78,9.57-1.18L388.11,175c5.72,3.32,6.75,12.6,1,15.93L218,288.66A23.9,23.9,0,0,1,194.28,288.83Z" fill="#ff912e"></path><polyline points="210.41 266.81 186.4 281.54 78.97 215.03 129.48 188.53" opacity="0.8" fill="url(#linear-gradient)" style="mix-blend-mode: multiply;"></polyline><path d="M185.45,95s4.58,1.94,5.79,2.23,4.85,1.88,6.27,0a17.8,17.8,0,0,0,2.26-4.73s-.06-.55,2.18-.52c3.71,0,3.78-1.75,3.78-1.75L189,90.43" fill="#ffb087"></path><path d="M162.58,61.69s1.8,17.82,3.35,20,23.72,5.88,23.72,5.88-2.16,11.2-3.58,11.53-29.9-4.66-34.52-10.69-4-21.14-4-21.14S150.88,53.41,162.58,61.69Z" fill="#ced7d8"></path><path d="M135,180.94s-1.57,8-.51,9.86,4.65,7.38,6.56,8.46,4.15,1.06,3.6,3.55-6.25,1.64-8.89,1.36-5.71-6-7.66-6.14-.61,6.29-1.7,5.8-3.56-1-3.69-1.46,3.46-18.3,3.46-18.3" fill="#ffb087"></path><path d="M125.35,188c5.83,1,9.3,14.76,15.58,11.21l.09.06c1.91,1.08,4.15,1.06,3.6,3.55s-6.25,1.64-8.89,1.36-5.71-6-7.66-6.14-.61,6.29-1.7,5.8-3.56-1-3.69-1.46S124.31,193.28,125.35,188Z" fill="#3f2a29"></path><path d="M115,185.69s-1.57,8-.51,9.86,4.65,7.38,6.56,8.46,4.15,1.06,3.6,3.55-6.25,1.64-8.89,1.36-5.71-6-7.66-6.14-.61,6.29-1.7,5.8-3.56-1-3.69-1.46,3.46-18.3,3.46-18.3" fill="#ffb087"></path><path d="M105.39,192.74c5.83,1,9.3,14.76,15.58,11.21l.09.06c1.91,1.08,4.15,1.06,3.6,3.55s-6.25,1.64-8.89,1.36-5.71-6-7.66-6.14-.61,6.29-1.7,5.8-3.56-1-3.69-1.46S104.35,198,105.39,192.74Z" fill="#3f2a29"></path><path d="M122.59,183.9c-1.92-15.24-4.48-98.4-4.48-98.4l22.75-.5L138,86.65s2,75.08-.35,97.39C133.56,186,127,185.2,122.59,183.9Z" fill="#68e1fd"></path><path d="M122.59,183.9c-1.92-15.24-4.48-98.4-4.48-98.4l22.75-.5L138,86.65s2,75.08-.35,97.39C133.56,186,127,185.2,122.59,183.9Z" fill="#06577a" opacity="0.32"></path><path d="M103.59,189.2c-.64-17.25,4.56-98.74,4.56-98.74l22.72,1.18-2.92,1.43s-4.22,71.76-8.2,96.08C115.63,191.23,108.07,190.67,103.59,189.2Z" fill="#68e1fd"></path><path d="M124.23,70.62l.12-.16c4.09-5.57,8-15.74,14.46-18.82,3.32-1.57,7.33-1.21,10.81-.41a35.07,35.07,0,0,1,5.81,1.9,10.68,10.68,0,0,1,6.38,7.49c.64,2.61-.85,5.51-2.22,7.66-2.72,4.29-4.61,7.84-7.65,11.91-2.78,3.73-5.24,7.71-8.12,11.35a45.78,45.78,0,0,0-3.49,4.65c-.4.65-4.34-.41-5.29-.43-11.4-.25-18.68-8-21.84-12.24C113,83.21,122.75,72.46,124.23,70.62Z" fill="#e96968"></path><path d="M144.87,50.58s-9,.76-11.78,3.32C127.9,58.67,124,66,120,71.71c-3.19,4.49-6.9,8.93-9.65,13.7-1.28,2.22-9.73,32.08-7.59,33.06,5.63,2.58,23.3,4.16,23.3,4.16l14.84-45.16,14.58-24.34Z" fill="#e4e9ea"></path><path d="M139.84,100c6.43-9.91,23.73-36.69,23.58-37.86-.19-1.45-2.41-4.64-2.41-4.64s-6.92,12-7.06,12.93c0,0-7,10.5-14.46,21.78A64.2,64.2,0,0,0,139.84,100Z" fill="#e4e9ea"></path><path d="M171.16,51c-.62.84-7.33,11.81-13.22,7.47-6.53-4.82,2.91-20.23,9.51-17.4S172.35,49.39,171.16,51Z" fill="#ffb087"></path><path d="M172.75,38c-3.18-3.76-7.78-4.5-12.21-3.66a12.82,12.82,0,0,0-9.89,9c-1.45,4.41-1.56,9.4,2.29,12.38a4.23,4.23,0,0,0,2.2-1A8.13,8.13,0,0,0,157,51.12a7.27,7.27,0,0,1-.12-2.4,2.69,2.69,0,0,1,2.29-2.51c1.43,0,1.79,1.51,1.74,3,1.21-1.74,2.11-3,2.11-3,1.44,1.74,9.24,6.31,9.24,6.31C175.61,48.53,176.23,42.14,172.75,38Z" fill="#842626"></path><polygon points="108.17 223.95 196.29 274.96 360.73 179.92 272.21 129.28 108.17 223.95" fill="#f2eded"></polygon><polygon points="108.17 212.35 196.29 263.36 360.73 168.32 272.21 117.68 108.17 212.35" fill="#68e1fd"></polygon><polygon points="108.17 212.35 108.17 223.95 196.29 274.96 196.29 263.36 108.17 212.35" fill="#68e1fd"></polygon><polygon points="360.73 168.32 360.73 179.92 196.29 274.96 196.29 263.36 360.73 168.32" fill="#68e1fd"></polygon><polygon points="108.17 212.35 108.17 223.95 196.29 274.96 196.29 263.36 108.17 212.35" fill="#06577a" opacity="0.32"></polygon><polygon points="360.73 168.32 360.73 179.92 196.29 274.96 196.29 263.36 360.73 168.32" fill="#06577a" opacity="0.21"></polygon><polygon points="228.36 149.42 271.81 124.53 345.49 167.34 303.12 192.58 228.36 149.42" fill="#3a3636"></polygon><polyline points="261.48 198.8 261.48 199.7 296.39 198.08 296.39 197.18" fill="#f4c6c6"></polyline><polyline points="242.15 187.59 242.15 188.49 277.05 186.87 277.05 185.97" fill="#f4c6c6"></polyline><polyline points="222.38 175.81 222.38 176.71 257.29 175.09 257.29 174.19" fill="#f4c6c6"></polyline><polyline points="202.62 164.5 202.62 165.4 237.53 163.78 237.53 162.88" fill="#f4c6c6"></polyline><polygon points="296.39 198.06 279.8 188.57 261.48 199.68 277.58 208.95 296.39 198.06" fill="#f4c6c6"></polygon><polygon points="277.05 186.87 260.46 177.37 242.15 188.49 258.25 197.75 277.05 186.87" fill="#f4c6c6"></polygon><polygon points="257.29 175.08 240.7 165.59 222.38 176.7 238.49 185.97 257.29 175.08" fill="#f4c6c6"></polygon><polygon points="237.53 163.78 220.94 154.28 202.62 165.4 218.72 174.66 237.53 163.78" fill="#f4c6c6"></polygon><polygon points="296.39 197.16 279.8 187.67 261.48 198.78 277.58 208.05 296.39 197.16" fill="#ffd4d4"></polygon><polygon points="277.05 185.96 260.46 176.47 242.15 187.58 258.25 196.85 277.05 185.96" fill="#ffd4d4"></polygon><polygon points="257.29 174.18 240.7 164.69 222.38 175.8 238.49 185.07 257.29 174.18" fill="#ffd4d4"></polygon><polygon points="237.53 162.88 220.94 153.38 202.62 164.5 218.72 173.76 237.53 162.88" fill="#ffd4d4"></polygon><polyline points="238.08 212.59 238.08 213.49 272.98 211.87 272.98 210.97" fill="#f4c6c6"></polyline><polyline points="218.74 201.38 218.74 202.28 253.65 200.66 253.65 199.76" fill="#f4c6c6"></polyline><polyline points="198.98 189.59 198.98 190.5 233.88 188.88 233.88 187.97" fill="#f4c6c6"></polyline><polyline points="179.21 178.28 179.21 179.18 214.12 177.56 214.12 176.66" fill="#f4c6c6"></polyline><polygon points="272.98 211.85 256.4 202.35 238.08 213.47 254.18 222.74 272.98 211.85" fill="#f4c6c6"></polygon><polygon points="253.65 200.65 237.06 191.15 218.74 202.27 234.84 211.54 253.65 200.65" fill="#f4c6c6"></polygon><polygon points="233.88 188.87 217.3 179.37 198.98 190.49 215.08 199.76 233.88 188.87" fill="#f4c6c6"></polygon><polygon points="214.12 177.56 197.53 168.06 179.21 179.18 195.32 188.45 214.12 177.56" fill="#f4c6c6"></polygon><polygon points="272.98 210.95 256.4 201.45 238.08 212.57 254.18 221.84 272.98 210.95" fill="#ffd4d4"></polygon><polygon points="253.65 199.75 237.06 190.25 218.74 201.37 234.84 210.64 253.65 199.75" fill="#ffd4d4"></polygon><polygon points="233.88 187.97 217.3 178.47 198.98 189.59 215.08 198.86 233.88 187.97" fill="#ffd4d4"></polygon><polygon points="214.12 176.66 197.53 167.16 179.21 178.28 195.32 187.55 214.12 176.66" fill="#ffd4d4"></polygon><polyline points="214.6 225.69 214.6 226.59 249.5 224.97 249.5 224.07" fill="#f4c6c6"></polyline><polyline points="195.26 214.47 195.26 215.38 230.17 213.76 230.17 212.86" fill="#f4c6c6"></polyline><polyline points="175.5 202.69 175.5 203.59 210.41 201.97 210.41 201.07" fill="#f4c6c6"></polyline><polyline points="155.73 191.38 155.73 192.28 190.64 190.66 190.64 189.76" fill="#f4c6c6"></polyline><polygon points="249.5 224.95 232.92 215.45 214.6 226.57 230.7 235.84 249.5 224.95" fill="#f4c6c6"></polygon><polygon points="230.17 213.75 213.58 204.25 195.26 215.37 211.36 224.64 230.17 213.75" fill="#f4c6c6"></polygon><polygon points="210.41 201.97 193.82 192.47 175.5 203.59 191.6 212.86 210.41 201.97" fill="#f4c6c6"></polygon><polygon points="190.64 190.66 174.06 181.16 155.73 192.28 171.84 201.55 190.64 190.66" fill="#f4c6c6"></polygon><polygon points="249.5 224.05 232.92 214.55 214.6 225.67 230.7 234.94 249.5 224.05" fill="#ffd4d4"></polygon><polygon points="230.17 212.85 213.58 203.35 195.26 214.47 211.36 223.74 230.17 212.85" fill="#ffd4d4"></polygon><polygon points="210.41 201.07 193.82 191.57 175.5 202.69 191.6 211.96 210.41 201.07" fill="#ffd4d4"></polygon><polygon points="190.64 189.76 174.06 180.26 155.73 191.38 171.84 200.65 190.64 189.76" fill="#ffd4d4"></polygon><path d="M219.1,238l-27.73,1.29v.9L219,238.9Q219.07,238.44,219.1,238Z" fill="#f4c6c6"></path><polyline points="172.03 228.07 172.03 228.97 206.93 227.35 206.93 226.45" fill="#f4c6c6"></polyline><polyline points="152.26 216.28 152.26 217.19 187.17 215.57 187.17 214.66" fill="#f4c6c6"></polyline><polyline points="132.5 204.97 132.5 205.87 167.41 204.25 167.41 203.35" fill="#f4c6c6"></polyline><polygon points="234.73 233.42 209.68 229.04 191.36 240.16 207.47 249.43 234.73 233.42" fill="#f4c6c6"></polygon><polygon points="206.93 227.34 190.35 217.84 172.03 228.96 188.13 238.23 206.93 227.34" fill="#f4c6c6"></polygon><polygon points="187.17 215.56 170.58 206.06 152.26 217.18 168.37 226.45 187.17 215.56" fill="#f4c6c6"></polygon><polygon points="167.41 204.25 150.82 194.76 132.5 205.87 148.6 215.14 167.41 204.25" fill="#f4c6c6"></polygon><polygon points="245.02 226.78 215.81 224.93 191.36 239.26 207.47 248.53 245.02 226.78" fill="#ffd4d4"></polygon><polygon points="206.93 226.44 190.35 216.94 172.03 228.06 188.13 237.33 206.93 226.44" fill="#ffd4d4"></polygon><polygon points="187.17 214.66 170.58 205.16 152.26 216.28 168.37 225.55 187.17 214.66" fill="#ffd4d4"></polygon><polygon points="167.41 203.35 150.82 193.85 132.5 204.97 148.6 214.24 167.41 203.35" fill="#ffd4d4"></polygon><path d="M175.89,189.17c.37.19.38.51,0,.71l-4.64,2.71a1.47,1.47,0,0,1-1.28,0c-.37-.19-.38-.51,0-.71l4-2.33-.59-.18-.27-.11c-.31-.17-.34-.45,0-.62a1.32,1.32,0,0,1,1-.08l1.11.31a4.38,4.38,0,0,1,.73.27Z"></path><path d="M152.94,202.31c1.62.85,1.41,2.18-.25,3.15h0a6.28,6.28,0,0,1-5.7.31c-1.63-.86-1.42-2.17.24-3.15h0A6.3,6.3,0,0,1,152.94,202.31Zm-1.66,2.45h0c1-.61,1.29-1.36.48-1.78a3.5,3.5,0,0,0-3.14.37h0c-1,.61-1.3,1.35-.49,1.78a3.5,3.5,0,0,0,3.14-.36"></path><path d="M237.12,200c1.22.64,1.52,1.5.32,2.2h0a4.76,4.76,0,0,1-4.32-.06c-.79-.42-1.13-.82-1.15-1.29s.31-1,1.45-1.65h0a6.07,6.07,0,0,1,5.82-.43,2.59,2.59,0,0,1,1.13,1c.09.18.06.35-.19.5a1.39,1.39,0,0,1-1.22,0,.64.64,0,0,1-.24-.23,1.45,1.45,0,0,0-.67-.6,2.92,2.92,0,0,0-2.56.13A4.19,4.19,0,0,1,237.12,200ZM236,201.53h0c.48-.28.43-.7-.23-1a2,2,0,0,0-1.88-.07h0c-.48.28-.45.71.21,1.05a2,2,0,0,0,1.89.06"></path><path d="M221.47,187.13c.32.17.33.46,0,.64a1.32,1.32,0,0,1-1.14,0l-2.07-1.08-1.07.55a4.76,4.76,0,0,1,.91.37c1.21.63,1.6,1.44.3,2.2h0a4.54,4.54,0,0,1-4.26,0,2.51,2.51,0,0,1-1.38-1.33c-.06-.15,0-.3.21-.43a1.44,1.44,0,0,1,1.25,0,.44.44,0,0,1,.25.26,1.5,1.5,0,0,0,.8.83,1.9,1.9,0,0,0,1.78,0c.51-.3.35-.7-.29-1a8.56,8.56,0,0,0-1.07-.4.7.7,0,0,1-.36-.47c-.06-.17,0-.31.26-.43l2.07-1.07a1.34,1.34,0,0,1,1.13,0Z"></path><path d="M198.7,178.74c.31.16.32.43,0,.59a1.2,1.2,0,0,1-1.06,0l-.32-.17-.69.4a1.41,1.41,0,0,1-1.24,0c-.36-.19-.38-.49,0-.69l.69-.4-2.52-1.32c-.35-.19-.4-.48-.06-.68a2.17,2.17,0,0,1,1-.24L200,176a2.18,2.18,0,0,1,1.26.19c.35.19.38.49,0,.69l-3,1.74Zm-1.61-.84,1.79-1-3.41.19,1.63.85"></path><path d="M216.9,212.8c.39.21.47.48.12.69a2.07,2.07,0,0,1-1.12.2h-2.27c.69.51,1.1,1.18,0,1.8h0a4.37,4.37,0,0,1-4.08-.06c-.87-.46-1.28-.95-1.37-1.45a.4.4,0,0,1,.23-.38,1.46,1.46,0,0,1,1.25,0,.46.46,0,0,1,.27.31,1.3,1.3,0,0,0,.77.88,1.69,1.69,0,0,0,1.56,0h0c.47-.27.28-.66-.47-1.06l-.21-.11c-.31-.17-.33-.45,0-.62a1.6,1.6,0,0,1,.81-.15l2.32,0-1.88-1c-.31-.17-.33-.45,0-.62a1.3,1.3,0,0,1,1.12,0Z"></path><path d="M196.36,200.21c1.27.67,1.42,1.52.34,2.15h0c-1,.56-2,.56-3.84.46l-1.72-.1,2.14,1.12c.32.17.34.45,0,.63a1.28,1.28,0,0,1-1.13,0l-3.32-1.74c-.42-.22-.5-.51-.12-.73a1.78,1.78,0,0,1,1-.19l3.08.13a4.46,4.46,0,0,0,2.44-.25c.48-.28.4-.62-.07-.87a2.84,2.84,0,0,0-1.5-.23,1.29,1.29,0,0,1-.64-.13c-.34-.18-.35-.47,0-.66a1.32,1.32,0,0,1,.55-.15A5.16,5.16,0,0,1,196.36,200.21Z"></path><path d="M241.39,175.5c.31.5.31.91-.37,1.31h0a4.41,4.41,0,0,1-4.06-.25c-1.35-.71-1.7-1.62-.7-2.21a3.25,3.25,0,0,1,2.39-.3c-.2-.41-.14-.78.48-1.14h0a4.16,4.16,0,0,1,3.73.21c1.29.68,1.46,1.53.57,2.05h0A3.16,3.16,0,0,1,241.39,175.5Zm-1.62.6h0c.44-.26.26-.65-.35-1a1.94,1.94,0,0,0-1.76-.14h0c-.39.23-.32.62.34,1a2,2,0,0,0,1.78.14m.51-2.45h0c-.4.23-.37.59.16.87a1.71,1.71,0,0,0,1.58,0h0c.36-.21.35-.57-.2-.86a1.7,1.7,0,0,0-1.54-.07"></path><path d="M263.16,186.26c0,.47-.31,1-1.44,1.65a6.07,6.07,0,0,1-5.83.44,2.55,2.55,0,0,1-1.21-1.09c-.07-.16,0-.33.2-.47a1.38,1.38,0,0,1,1.22,0,.58.58,0,0,1,.25.24,1.54,1.54,0,0,0,.72.66,2.89,2.89,0,0,0,2.55-.11,3.84,3.84,0,0,1-1.64-.42c-1.32-.69-1.49-1.55-.33-2.23h0a4.76,4.76,0,0,1,4.35,0C262.84,185.39,263.14,185.76,263.16,186.26Zm-2,.46h0c.51-.3.47-.73-.19-1.08a2,2,0,0,0-1.92,0h0c-.51.3-.46.71.21,1.07a2,2,0,0,0,1.9.05"></path><path d="M224.89,163.24c.37.2.4.44,0,.65a2.6,2.6,0,0,1-.81.26l-6.64,1.17a1.64,1.64,0,0,1-1.07-.09c-.35-.19-.49-.48-.12-.69a1.8,1.8,0,0,1,.52-.17l6-1-2.34-1.23c-.32-.17-.34-.45,0-.62a1.3,1.3,0,0,1,1.14,0Z"></path><path d="M218,229.83c-.33-.17-.35-.46,0-.65a1.35,1.35,0,0,1,1.17,0l3.22,1.69c.33.17.35.46,0,.65a1.35,1.35,0,0,1-1.17,0Z"></path><path d="M220.21,232.11c.33.17.34.47,0,.65a1.35,1.35,0,0,1-1.17,0l-3.22-1.69c-.33-.17-.35-.46,0-.65a1.36,1.36,0,0,1,1.17,0Z"></path><path d="M282.29,197.18c.35.18.38.46.07.64a1.43,1.43,0,0,1-.62.16l-2.38.13-.09,1.35a.49.49,0,0,1-.26.39,1.31,1.31,0,0,1-1.18,0,.46.46,0,0,1-.3-.51l.22-1.18-2.11.19a1.76,1.76,0,0,1-.9-.12c-.35-.18-.39-.46-.07-.64a1.27,1.27,0,0,1,.61-.15l2.52-.15.09-1.26a.47.47,0,0,1,.25-.39,1.31,1.31,0,0,1,1.2,0,.45.45,0,0,1,.3.51l-.22,1.09,2-.17A1.76,1.76,0,0,1,282.29,197.18Z"></path><path d="M193.87,226.78c.19.1.19.26,0,.36a.76.76,0,0,1-.19.07l-6.67,1.4a.73.73,0,0,1-.5,0c-.19-.1-.19-.26,0-.36a.77.77,0,0,1,.2-.07l6.66-1.4A.71.71,0,0,1,193.87,226.78Z"></path><path d="M196,228.44a1.74,1.74,0,0,1,1,.93c0,.09,0,.2-.16.28a1,1,0,0,1-.85,0,.35.35,0,0,1-.18-.19,1,1,0,0,0-.56-.59,2.62,2.62,0,0,0-2.34.08h0c-.65.38-.71.94,0,1.31a2.68,2.68,0,0,0,1.17.29.82.82,0,0,1,.36.08c.22.12.24.32,0,.44a.87.87,0,0,1-.44.1,4.15,4.15,0,0,1-1.91-.47c-1.19-.62-1.21-1.59-.12-2.22A4.53,4.53,0,0,1,196,228.44Z"></path><path d="M187.19,227.5a.33.33,0,0,1-.12.12.93.93,0,0,1-.82,0c-.21-.11-.23-.25-.14-.39l.32-.49-1.77-.93-.91.21a1,1,0,0,1-.67-.06c-.23-.12-.24-.31,0-.44a.83.83,0,0,1,.23-.08l4.38-1a1.24,1.24,0,0,1,.85.08l.05,0c.24.13.29.29.19.46Zm-1.47-1.93,1.11.58.69-1-1.81.44"></path><path d="M256.74,210.31c.34.18.36.48,0,.67l-.94.55,1,.54c.33.18.34.47,0,.65a1.34,1.34,0,0,1-1.17,0l-1-.54-.94.55a1.4,1.4,0,0,1-1.21,0c-.34-.18-.35-.48,0-.67l.94-.55-1-.54c-.33-.17-.35-.46,0-.65a1.36,1.36,0,0,1,1.17,0l1,.54.94-.55A1.38,1.38,0,0,1,256.74,210.31Z"></path><path d="M168.72,214.56a1,1,0,0,0,0,2A1,1,0,0,0,168.72,214.56Z"></path><g opacity="0.53"><path d="M271.62,140.29l-4.56,2.66.87.5c.21.12.32.22.34.32s0,.18-.17.25a.84.84,0,0,1-.44.1,1.25,1.25,0,0,1-.51-.16l0,0-2.61-1.5c-.21-.12-.32-.23-.33-.32s0-.18.17-.25a.75.75,0,0,1,.43-.1,1.17,1.17,0,0,1,.51.16l.05,0,.87.5,3.48-2-1-.33-.29-.11,0,0a.26.26,0,0,1-.17-.24.31.31,0,0,1,.19-.25.63.63,0,0,1,.35-.1,1.71,1.71,0,0,1,.54.11Z" fill="#fff"></path></g><g opacity="0.53"><path d="M276.22,142.93l.08,0c.55.31.84.66.87,1a1,1,0,0,1-.63,1,2.54,2.54,0,0,1-.79.29,8.77,8.77,0,0,1-1.54.06c-.57,0-1.64-.06-3.21-.14l1.89,1.08a1,1,0,0,1,.4.09h0q.21.11.19.25c0,.1-.11.2-.32.32l-.4.23-3.95-2.26.89-.52c2.79.17,4.54.25,5.21.23a1.66,1.66,0,0,0,.76-.16A.44.44,0,0,0,276,144c0-.2-.19-.38-.5-.56l0,0a2.3,2.3,0,0,0-1-.27,2.12,2.12,0,0,0-.66.09,1.21,1.21,0,0,1-.41.05.81.81,0,0,1-.3-.09l0,0a.3.3,0,0,1-.19-.25.25.25,0,0,1,.16-.24,2.35,2.35,0,0,1,.84-.22,4.18,4.18,0,0,1,2.38.43Z" fill="#fff"></path></g><g opacity="0.53"><path d="M287.27,150.45a2.35,2.35,0,0,1-.94.92l-.91.53a5.24,5.24,0,0,1-2,.63,3.4,3.4,0,0,1-2.1-.34l0,0a1.48,1.48,0,0,1-.66-.64,1,1,0,0,1,.13-.86,2.31,2.31,0,0,1,.94-.92l.91-.53a5.3,5.3,0,0,1,2-.63,3.4,3.4,0,0,1,2.1.34l0,0a1.5,1.5,0,0,1,.66.63A1.05,1.05,0,0,1,287.27,150.45Zm-1.81.42a1.51,1.51,0,0,0,.8-.92c0-.19-.08-.37-.35-.52h0a1.66,1.66,0,0,0-.93-.17,3.44,3.44,0,0,0-1.53.46l-.92.54a1.48,1.48,0,0,0-.79.92c0,.19.08.37.35.52h0a1.63,1.63,0,0,0,.92.17,3.44,3.44,0,0,0,1.53-.46l.92-.54" fill="#fff"></path></g><g opacity="0.53"><path d="M281.44,145.92l0,0c.55.31.84.66.87,1a1,1,0,0,1-.64,1,2.5,2.5,0,0,1-.78.29,8.44,8.44,0,0,1-1.54.06c-.57,0-1.64-.06-3.21-.14l1.89,1.08a1,1,0,0,1,.4.09h0a.3.3,0,0,1,.19.25c0,.09-.11.2-.32.32l-.4.23L274,147.9l.88-.51c2.8.17,4.54.24,5.21.22a1.7,1.7,0,0,0,.76-.16.45.45,0,0,0,.26-.47c0-.2-.2-.38-.5-.56l0,0a2.3,2.3,0,0,0-1-.27,2.07,2.07,0,0,0-.66.09,1.33,1.33,0,0,1-.41.05.84.84,0,0,1-.3-.09l0,0a.3.3,0,0,1-.19-.25.25.25,0,0,1,.16-.24,2.3,2.3,0,0,1,.83-.22,4.16,4.16,0,0,1,2.42.46Z" fill="#fff"></path></g><g opacity="0.53"><polygon points="292.67 155.41 296.27 157.48 295.51 157.92 291.9 155.85 292.67 155.41" fill="#fff"></polygon></g><g opacity="0.53"><path d="M307.93,161.09l-4.56,2.66.87.5c.21.12.32.23.33.32s0,.18-.17.25a.75.75,0,0,1-.43.1,1.17,1.17,0,0,1-.51-.16l-.05,0-2.61-1.49c-.21-.12-.32-.23-.34-.32s0-.18.17-.25a.82.82,0,0,1,.44-.1,1.16,1.16,0,0,1,.51.16l.05,0,.88.5,3.47-2-1-.33a2,2,0,0,1-.33-.13.26.26,0,0,1-.15-.24.31.31,0,0,1,.19-.25.65.65,0,0,1,.35-.1,1.64,1.64,0,0,1,.54.11Z" fill="#fff"></path></g><g opacity="0.53"><path d="M313.2,165.31a2.33,2.33,0,0,1-.94.93l-.92.53a5.24,5.24,0,0,1-2,.63,3.36,3.36,0,0,1-2.07-.33l-.07,0a1.4,1.4,0,0,1-.66-.63,1,1,0,0,1,.13-.87,2.27,2.27,0,0,1,.94-.92l.91-.53a5.3,5.3,0,0,1,2-.63,3.39,3.39,0,0,1,2.1.34l0,0a1.49,1.49,0,0,1,.66.63A1.05,1.05,0,0,1,313.2,165.31Zm-1.81.42a1.5,1.5,0,0,0,.8-.92c0-.19-.08-.37-.35-.52l0,0a1.66,1.66,0,0,0-.9-.16,3.47,3.47,0,0,0-1.53.46l-.92.54a1.47,1.47,0,0,0-.78.92q-.06.29.35.53h0a1.66,1.66,0,0,0,.92.17,3.47,3.47,0,0,0,1.53-.46l.91-.53" fill="#fff"></path></g><g opacity="0.53"><path d="M323.56,171.25a2.27,2.27,0,0,1-.94.93l-.91.53a5.37,5.37,0,0,1-2,.63,3.38,3.38,0,0,1-2.09-.34l0,0a1.48,1.48,0,0,1-.66-.64,1.06,1.06,0,0,1,.13-.87,2.38,2.38,0,0,1,.94-.92l.91-.53a5.44,5.44,0,0,1,2-.63,3.4,3.4,0,0,1,2.1.34l0,0a1.52,1.52,0,0,1,.66.63A1.08,1.08,0,0,1,323.56,171.25Zm-1.8.43a1.48,1.48,0,0,0,.79-.91q.06-.29-.35-.53h0a1.64,1.64,0,0,0-.93-.17,3.44,3.44,0,0,0-1.53.46l-.91.53a1.45,1.45,0,0,0-.79.92c0,.19.07.36.35.52h0a1.66,1.66,0,0,0,.93.17,3.44,3.44,0,0,0,1.53-.46l.92-.54" fill="#fff"></path></g><g opacity="0.53"><path d="M318.38,168.28a2.35,2.35,0,0,1-.94.92l-.91.53a5.24,5.24,0,0,1-2,.63,3.36,3.36,0,0,1-2.07-.33l-.07,0a1.44,1.44,0,0,1-.67-.64,1,1,0,0,1,.13-.86,2.3,2.3,0,0,1,.94-.93l.92-.53a5.3,5.3,0,0,1,2-.63,3.4,3.4,0,0,1,2.1.34l0,0a1.5,1.5,0,0,1,.66.63A1.08,1.08,0,0,1,318.38,168.28Zm-1.81.42a1.51,1.51,0,0,0,.8-.92c0-.19-.08-.37-.35-.52h0a1.66,1.66,0,0,0-.92-.18,3.49,3.49,0,0,0-1.53.46l-.92.54a1.46,1.46,0,0,0-.78.92c0,.19.07.37.34.52h0a1.64,1.64,0,0,0,.93.17,3.44,3.44,0,0,0,1.53-.46l.92-.54" fill="#fff"></path></g><path d="M290.22,165.65l.09,0c1,.53,1.54,1.15,1.62,1.84a1.88,1.88,0,0,1-1.09,1.79,4.57,4.57,0,0,1-1.41.56,15.83,15.83,0,0,1-2.76.19c-1,0-3,0-5.79-.08l3.47,1.85a1.92,1.92,0,0,1,.75.16q.35.19.36.44c0,.17-.19.37-.55.59l-.71.44L277,169.63l1.56-1c5,.16,8.18.2,9.4.12a2.89,2.89,0,0,0,1.36-.33.8.8,0,0,0,.45-.86c-.06-.36-.37-.67-.94-1l-.06,0a4.14,4.14,0,0,0-1.82-.43,3.67,3.67,0,0,0-1.19.21,2.29,2.29,0,0,1-.72.11,1.46,1.46,0,0,1-.54-.14l-.06,0a.57.57,0,0,1-.36-.43.47.47,0,0,1,.28-.44,4.13,4.13,0,0,1,1.49-.44,7.36,7.36,0,0,1,2.3,0A7.09,7.09,0,0,1,290.22,165.65Z" fill="#fff"></path><path d="M310.43,178.57a4.14,4.14,0,0,1-1.64,1.72l-1.62,1a9.67,9.67,0,0,1-3.64,1.24,6.08,6.08,0,0,1-3.78-.5l-.09,0a2.78,2.78,0,0,1-1.24-1.11,1.93,1.93,0,0,1,.21-1.57,4.11,4.11,0,0,1,1.64-1.72l1.61-1a9.85,9.85,0,0,1,3.64-1.24,6.05,6.05,0,0,1,3.74.48l.12.06a2.52,2.52,0,0,1,1.22,1.11A1.87,1.87,0,0,1,310.43,178.57Zm-3.22.87a2.67,2.67,0,0,0,1.38-1.69q.1-.53-.65-.93l0,0a3,3,0,0,0-1.68-.26,6.24,6.24,0,0,0-2.74.91l-1.61,1a2.62,2.62,0,0,0-1.37,1.7c-.07.34.15.65.65.92l.08,0a3,3,0,0,0,1.63.25,6.24,6.24,0,0,0,2.74-.91l1.62-1" fill="#fff"></path><path d="M299.72,170.73l.09,0c1,.54,1.53,1.15,1.62,1.84a1.89,1.89,0,0,1-1.1,1.79,4.31,4.31,0,0,1-1.41.56,14.82,14.82,0,0,1-2.75.2c-1,0-3,0-5.79-.08l3.47,1.85a1.92,1.92,0,0,1,.75.16c.23.13.35.28.35.45s-.19.37-.54.59l-.71.44-7.22-3.86,1.56-1c5,.16,8.18.2,9.4.12a3,3,0,0,0,1.35-.33.81.81,0,0,0,.46-.87c-.06-.36-.37-.67-.95-1l-.11-.06a4,4,0,0,0-1.76-.41,3.67,3.67,0,0,0-1.19.21,2.14,2.14,0,0,1-.74.1,1.57,1.57,0,0,1-.59-.16.6.6,0,0,1-.35-.44.49.49,0,0,1,.26-.44,4.51,4.51,0,0,1,1.51-.45,7.1,7.1,0,0,1,2.29,0A7.23,7.23,0,0,1,299.72,170.73Z" fill="#fff"></path><path d="M189.65,87.56s-11.32,1.66-13.47,20.1-3.06,61.1-14.21,73.65L194,163.37a161.83,161.83,0,0,0,5-34.09c.67-18.81,3.53-36.54,10.19-37.53" fill="#68e1fd"></path><path d="M172.19,92.15s9-1.54,9.83-1.39-1.58,2.85-2.94,2.84c0,0,4.68,2.36,6.08,3.8s-2,5.87-3,6a26.23,26.23,0,0,1-6.19-.83c-.48-.3-7.13-5.13-7.13-5.13L162.47,95l1.24-5.62Z" fill="#ffb087"></path><path d="M149.08,60.8s.36,17.91,1.73,20.19S174,88.75,174,88.75s-3.05,11-4.49,11.21-29.43-7-33.55-13.42-2.32-21.39-2.32-21.39S138.08,51.61,149.08,60.8Z" fill="#e4e9ea"></path><path d="M202.32,102.53l1.86-7.8s-13.11-14.32-22.63-1.8C188.44,96.21,195.41,99.31,202.32,102.53Z" fill="#06577a" opacity="0.32"></path><path d="M228.36,98.12l-25.74,12.54s7.17-11.22-13-23.11l25.95-8.78S231.15,83.33,228.36,98.12Z" fill="#68e1fd"></path><path d="M149.72,30.69c-7.92,1.23-13.59,9-16.08,16.05-1.25,3.55-3.47,4.4-6.82,5.58-8,2.83-4.3,14,2.24,14.31,4,1,8.06-1.23,10.87-4.93,4.37-5.74,5.55-13,6.45-20,1.47-4.46,7.26-8.62,11-3.93l3.1-3.4S158.59,29.31,149.72,30.69Z" fill="#842626"></path><path d="M159.95,33.34a47.82,47.82,0,0,0-4.75,1.91c-1.17.54-.15,2.27,1,1.73a42.94,42.94,0,0,1,4.27-1.71C161.69,34.86,161.17,32.93,159.95,33.34Z" fill="#fbb03b"></path></g></g></svg>