<svg xmlns="http://www.w3.org/2000/svg" viewBox="0 0 400 300" width="406" height="306" class="illustration styles_illustrationTablet__1DWOa"><g id="_294_online_payment_flatline" data-name="#294_online_payment_flatline"><path d="M324.27,63.61s-2.32-4.28-6-10.19c0,0-11.82,8.83-11.73,8.34S324.27,63.61,324.27,63.61Z" fill="#231f20"></path><path d="M324.27,64.11h-.07c-6.22-.83-16.37-2.06-17.48-1.91-.29.12-.38.06-.48,0a.54.54,0,0,1-.23-.54c0-.14.06-.28.39-.36h0c.68-.27,7.44-5.22,11.53-8.28a.49.49,0,0,1,.39-.09.48.48,0,0,1,.33.22c3.69,5.86,6,10.18,6.06,10.22a.5.5,0,0,1-.44.74Zm-16-2.84c2.18.12,6.49.59,15.05,1.72-.83-1.49-2.7-4.76-5.26-8.84C312.72,58.15,309.87,60.22,308.3,61.27Z" fill="#231f20"></path><polygon points="167.65 241.96 161.75 232.12 169.92 224.74 167.65 241.96" fill="#231f20"></polygon><path d="M167.65,242.46a.52.52,0,0,1-.43-.24l-5.9-9.84a.5.5,0,0,1,.1-.63l8.16-7.38a.5.5,0,0,1,.57-.07.51.51,0,0,1,.26.51L168.15,242a.5.5,0,0,1-.4.43Zm-5.26-10.24,5,8.25,1.9-14.45Z" fill="#231f20"></path><path d="M171.48,244l95,13.53a8.26,8.26,0,0,0,9-5.83l49.16-183.9c1-3.81-1.43-7.16-5.46-7.49l-96.87-7.81a8.55,8.55,0,0,0-8.62,6.12L166.52,236.44A5.92,5.92,0,0,0,171.48,244Z" fill="#231f20"></path><path d="M267.53,258.14a9,9,0,0,1-1.15-.08l-95-13.54h0a6.45,6.45,0,0,1-4.57-2.81,6.6,6.6,0,0,1-.81-5.4L213.17,58.52A9.11,9.11,0,0,1,222.32,52l96.87,7.81a6.7,6.7,0,0,1,5,2.72,6.36,6.36,0,0,1,.86,5.4l-49.16,183.9A8.81,8.81,0,0,1,267.53,258.14Zm-96-14.61,95,13.54A7.77,7.77,0,0,0,275,251.6L324.12,67.71a5.34,5.34,0,0,0-.71-4.57,5.67,5.67,0,0,0-4.3-2.3L222.24,53a8,8,0,0,0-8.1,5.75L167,236.57a5.59,5.59,0,0,0,.67,4.59A5.5,5.5,0,0,0,171.55,243.53Z" fill="#231f20"></path><path d="M165.3,233.88l95,13.53a8.28,8.28,0,0,0,9-5.83l49.15-183.9c1-3.81-1.43-7.16-5.46-7.49L216.1,42.38a8.57,8.57,0,0,0-8.63,6.12L160.33,226.29A5.92,5.92,0,0,0,165.3,233.88Z" fill="#fff"></path><path d="M261.35,248a8.89,8.89,0,0,1-1.15-.08l-95-13.54a6.45,6.45,0,0,1-4.57-2.81,6.59,6.59,0,0,1-.81-5.4L207,48.38a9.09,9.09,0,0,1,9.15-6.5L313,49.69a6.71,6.71,0,0,1,5.05,2.72,6.4,6.4,0,0,1,.86,5.4l-49.16,183.9A8.81,8.81,0,0,1,261.35,248ZM215.52,42.86A8.08,8.08,0,0,0,208,48.63L160.82,226.42a5.59,5.59,0,0,0,.67,4.59,5.5,5.5,0,0,0,3.88,2.37h0l95,13.54a7.77,7.77,0,0,0,8.44-5.47L317.94,57.56a5.37,5.37,0,0,0-.71-4.57,5.67,5.67,0,0,0-4.31-2.3l-96.86-7.81Z" fill="#231f20"></path><polygon points="309.04 69.78 209.87 61.19 171.82 204.65 269.54 217.64 309.04 69.78" fill="#68e1fd"></polygon><path d="M265.54,197.87a.49.49,0,0,1-.45-.29l-20-42.29a.5.5,0,0,1,.24-.67.5.5,0,0,1,.66.24l20,42.3a.49.49,0,0,1-.24.66A.54.54,0,0,1,265.54,197.87Z" fill="#fff"></path><path d="M204.55,232.81l18.54,2.61a5,5,0,0,0,5.41-3.56l1.84-6.91a3.72,3.72,0,0,0-3.2-4.75l-18.56-2.52a5,5,0,0,0-5.34,3.56l-1.83,6.85A3.69,3.69,0,0,0,204.55,232.81Z" fill="#fff"></path><path d="M223.71,236a4,4,0,0,1-.69-.05l-18.54-2.6h0a4.2,4.2,0,0,1-3.55-5.35l1.82-6.85a5.5,5.5,0,0,1,5.9-3.92l18.56,2.51a4.34,4.34,0,0,1,3.08,1.87,4.29,4.29,0,0,1,.53,3.51L229,232A5.54,5.54,0,0,1,223.71,236Zm-19.09-3.64,18.54,2.6a4.49,4.49,0,0,0,4.85-3.19l1.85-6.91a3.33,3.33,0,0,0-.4-2.7,3.38,3.38,0,0,0-2.38-1.43l-18.57-2.51a4.46,4.46,0,0,0-4.79,3.18l-1.82,6.86a3.19,3.19,0,0,0,2.72,4.1Z" fill="#e6e7e8"></path><path d="M279.7,57.45h0l-28.33-2.37a.5.5,0,1,1,.09-1l28.32,2.36a.5.5,0,0,1,0,1Z" fill="#d1d3d4"></path><path d="M247.44,54.75h0l-3.76-.31a.49.49,0,0,1-.45-.54.51.51,0,0,1,.54-.46l3.75.32a.5.5,0,0,1,0,1Z" fill="#d1d3d4"></path><path d="M275.26,148.94s12.18-40.16,1.62-49.06L225.2,93.66s-8.86,9.23-10.14,16.32-12,22.19-8,31.2Z" fill="#231f20"></path><path d="M275.26,149.44h-.05L207,141.67a.51.51,0,0,1-.4-.29c-2.77-6.26,1.28-15.29,4.54-22.55,1.61-3.58,3-6.68,3.4-8.94,1.29-7.16,9.9-16.2,10.27-16.58a.5.5,0,0,1,.42-.15l51.68,6.23a.54.54,0,0,1,.26.11c10.69,9-1,47.94-1.46,49.59A.5.5,0,0,1,275.26,149.44Zm-67.82-8.73,67.46,7.69c1.22-4.18,11.21-39.74,1.77-48l-51.28-6.18c-1.22,1.32-8.7,9.56-9.84,15.89-.43,2.38-1.84,5.53-3.47,9.17C209,126.21,205.07,134.86,207.44,140.71Z" fill="#231f20"></path><line x1="193.77" y1="137.5" x2="280.14" y2="149.62" fill="#fff"></line><path d="M280.14,150.12h-.07L193.7,138a.5.5,0,0,1-.42-.56.5.5,0,0,1,.56-.43l86.37,12.12a.51.51,0,0,1,.43.57A.51.51,0,0,1,280.14,150.12Z" fill="#231f20"></path><path d="M276.88,99.88s-5.24.72-8.45,11.62c-4.91,16.68-11.38,51.88-15.47,65.12-6,19.26-22,22-22,22l-67.65-9.81s27.53-9.54,32.18-25.76c4.89-17.09,11.66-49.38,13.49-56.59,3.23-12.77,16.25-12.77,16.25-12.77Z" fill="#fff"></path><path d="M230.93,199.09h-.07l-67.65-9.81a.51.51,0,0,1-.43-.45.5.5,0,0,1,.33-.52c.28-.09,27.35-9.65,31.87-25.43,3.39-11.85,7.74-31.23,10.61-44.06,1.29-5.75,2.31-10.3,2.87-12.51,3.29-13,16.61-13.15,16.74-13.15l51.74,6.23a.5.5,0,0,1,.44.49.51.51,0,0,1-.43.5c-.08,0-5,.91-8,11.26-2.49,8.44-5.36,21.6-8.15,34.33-2.72,12.47-5.3,24.25-7.32,30.8-3.12,10.09-9,15.62-13.46,18.48a26.32,26.32,0,0,1-9,3.84Zm-65.67-10.52,65.66,9.52c1.17-.24,16-3.55,21.56-21.62,2-6.51,4.59-18.27,7.31-30.71,2.78-12.75,5.67-25.93,8.16-34.4,2.11-7.15,5.09-10,7-11.21l-49.81-6c-.46,0-12.61.17-15.71,12.41-.55,2.19-1.57,6.73-2.86,12.48-2.88,12.84-7.23,32.24-10.63,44.12-2.45,8.53-11.17,15.18-18.06,19.25A93.48,93.48,0,0,1,165.26,188.57Z" fill="#231f20"></path><path d="M244.36,177.79h-.06l-9.15-1a.5.5,0,0,1-.44-.55.49.49,0,0,1,.55-.44l9.16,1a.5.5,0,0,1,.44.55A.51.51,0,0,1,244.36,177.79Z" fill="#d1d3d4"></path><path d="M227.77,175.91h-.06l-27.39-3.11a.5.5,0,0,1-.44-.55.49.49,0,0,1,.55-.44l27.4,3.1a.5.5,0,0,1-.06,1Z" fill="#d1d3d4"></path><path d="M236.18,188.24h-.06l-8.41-1a.5.5,0,1,1,.12-1l8.41,1a.5.5,0,0,1-.06,1Z" fill="#d1d3d4"></path><path d="M218.39,186.22h-.06l-26.19-3a.5.5,0,0,1,.11-1l26.2,3a.5.5,0,0,1,.44.55A.51.51,0,0,1,218.39,186.22Z" fill="#d1d3d4"></path><path d="M230.93,198.59a34.41,34.41,0,0,1-10.85-29.06l-71-12.81s6.09,23.77,14.19,32.06Z" fill="#fff"></path><path d="M230.93,199.09h-.07l-67.65-9.81a.54.54,0,0,1-.29-.15c-8.1-8.29-14.07-31.31-14.32-32.29a.49.49,0,0,1,.12-.46.5.5,0,0,1,.46-.16l71,12.81a.51.51,0,0,1,.4.55,34.21,34.21,0,0,0,10.68,28.63.49.49,0,0,1-.32.88Zm-67.41-10.78,65.92,9.56a35.32,35.32,0,0,1-9.91-27.93l-69.76-12.59C150.89,161.44,156.47,180.94,163.52,188.31Z" fill="#231f20"></path><path d="M259.05,115.47H259l-44-5a.49.49,0,0,1-.44-.56.5.5,0,0,1,.55-.44l44,5a.5.5,0,0,1-.05,1Z" fill="#d1d3d4"></path><path d="M257.21,126.79h-.06l-8.26-.94a.5.5,0,1,1,.12-1l8.25.93a.5.5,0,0,1-.05,1Z" fill="#d1d3d4"></path><path d="M239.7,124.8h0l-26.48-3a.5.5,0,0,1,.11-1l26.48,3a.5.5,0,0,1-.06,1Z" fill="#d1d3d4"></path><path d="M254.49,137.34h-.06l-13.61-1.54a.51.51,0,0,1-.44-.56.51.51,0,0,1,.56-.44l13.6,1.55a.49.49,0,0,1,.44.55A.5.5,0,0,1,254.49,137.34Z" fill="#d1d3d4"></path><path d="M227.77,134.31h-.06l-17.26-2a.5.5,0,1,1,.11-1l17.27,1.95a.51.51,0,0,1,.44.56A.51.51,0,0,1,227.77,134.31Z" fill="#d1d3d4"></path><path d="M252.17,147.33h-.06L240.76,146a.51.51,0,0,1-.44-.56.52.52,0,0,1,.56-.44l11.34,1.29a.5.5,0,0,1-.05,1Z" fill="#d1d3d4"></path><path d="M228.71,144.67h-.06l-20.53-2.33a.5.5,0,0,1-.44-.55.51.51,0,0,1,.56-.44l20.52,2.33a.5.5,0,0,1,0,1Z" fill="#d1d3d4"></path><path d="M249.76,158.39h0l-10.07-1.14a.5.5,0,0,1-.44-.55.49.49,0,0,1,.55-.44l10.07,1.14a.5.5,0,0,1-.06,1Z" fill="#d1d3d4"></path><path d="M233.41,156.54h-.06l-27.63-3.14a.5.5,0,0,1-.44-.55.49.49,0,0,1,.55-.44l27.63,3.13a.5.5,0,0,1-.05,1Z" fill="#d1d3d4"></path><path d="M247.22,167.34h-.06l-12-1.36a.5.5,0,0,1-.44-.55.49.49,0,0,1,.55-.44l12,1.36a.5.5,0,0,1-.06,1Z" fill="#d1d3d4"></path><path d="M229.79,165.37h0l-26.56-3a.5.5,0,0,1,.11-1l26.56,3a.5.5,0,0,1-.06,1Z" fill="#d1d3d4"></path><rect x="113.05" y="54.09" width="70.74" height="99.83" rx="8.16" transform="translate(116.72 282.44) rotate(-114.95)" fill="#fff"></rect><path d="M122.05,155a8.66,8.66,0,0,1-7.86-5l-23-49.34a8.66,8.66,0,0,1,4.2-11.5l75.72-35.23a8.66,8.66,0,0,1,11.5,4.2l22.95,49.34a8.65,8.65,0,0,1-4.19,11.5l-75.72,35.23A8.6,8.6,0,0,1,122.05,155ZM174.79,54.06a7.68,7.68,0,0,0-3.22.71L95.85,90a7.66,7.66,0,0,0-3.71,10.17h0l23,49.35a7.67,7.67,0,0,0,10.18,3.71L201,118a7.66,7.66,0,0,0,3.71-10.17l-23-49.35A7.67,7.67,0,0,0,174.79,54.06Z" fill="#231f20"></path><rect x="157.79" y="68.87" width="25.53" height="21.52" rx="5.9" transform="translate(170.3 267.85) rotate(-114.95)" fill="#68e1fd"></rect><rect x="110.05" y="83.03" width="7.26" height="25.97" rx="3.63" transform="translate(74.57 239.58) rotate(-114.95)" fill="#d1d3d4"></rect><rect x="182.02" y="99" width="7.51" height="17.74" rx="1.83" transform="translate(166.33 321.81) rotate(-114.95)" fill="#d1d3d4"></rect><rect x="162.53" y="108.07" width="7.51" height="17.74" rx="1.83" transform="translate(130.4 317.04) rotate(-114.95)" fill="#d1d3d4"></rect><rect x="143.05" y="117.13" width="7.51" height="17.74" rx="1.83" transform="translate(94.47 312.26) rotate(-114.95)" fill="#d1d3d4"></rect><rect x="123.56" y="126.2" width="7.51" height="17.74" rx="1.83" transform="translate(58.54 307.48) rotate(-114.95)" fill="#d1d3d4"></rect><path d="M260.63,92a.49.49,0,0,1-.42-.23l-13.41-21a.5.5,0,0,1,.84-.54l13.41,21a.5.5,0,0,1-.15.69A.45.45,0,0,1,260.63,92Z" fill="#fff"></path><path d="M220.08,85.9a.51.51,0,0,1-.45-.27L212.78,72.4a.49.49,0,0,1,.21-.67.5.5,0,0,1,.68.21l6.85,13.23a.51.51,0,0,1-.21.68A.68.68,0,0,1,220.08,85.9Z" fill="#fff"></path><path d="M108.37,163.43l-4.19,4.81c-2.67,3.34-11.16,1-18.94-5.25S73.3,149,76,145.65l4.2-4.81Z" fill="#fff"></path><path d="M100.22,170.27c-4,0-9.77-2.47-15.3-6.89a34.11,34.11,0,0,1-8.68-9.91c-1.85-3.47-2.08-6.35-.66-8.13l4.21-4.83a.5.5,0,0,1,.69-.06L108.68,163a.47.47,0,0,1,.19.34.53.53,0,0,1-.12.38l-4.2,4.81A5.29,5.29,0,0,1,100.22,170.27Zm-20-28.74L76.35,146c-1.13,1.41-.85,4,.77,7a33,33,0,0,0,8.43,9.61c7.43,6,15.78,8.39,18.24,5.33l3.86-4.44Z" fill="#231f20"></path><ellipse cx="94.27" cy="152.13" rx="7.74" ry="18.07" transform="translate(-83.41 130.61) rotate(-51.31)" fill="#fff"></ellipse><path d="M104.41,165.45c-4,0-9.78-2.47-15.29-6.88a34,34,0,0,1-8.69-9.91c-1.85-3.47-2.08-6.35-.65-8.13h0c1.42-1.78,4.29-2.19,8.07-1.14a34,34,0,0,1,11.57,6.31c8.13,6.51,12.23,14.43,9.34,18A5.32,5.32,0,0,1,104.41,165.45ZM84.12,139.83a4.37,4.37,0,0,0-3.56,1.32h0c-1.15,1.43-.87,4,.76,7a33,33,0,0,0,8.42,9.61c7.43,6,15.79,8.39,18.24,5.33s-1.75-10.69-9.19-16.64a32.84,32.84,0,0,0-11.21-6.12A12.85,12.85,0,0,0,84.12,139.83Zm-4,1h0Z" fill="#231f20"></path><path d="M87.71,143.58l1.83,1.74.21,0c.59.11,1.15.19,1.75.34a13.84,13.84,0,0,1,4.4,2.06,11.57,11.57,0,0,1,2.25,2,2.82,2.82,0,0,1,.79,1.52,1,1,0,0,1-.56,1c-.29.2-.61.38-.93.58l3.44,3.27c.59-.42.33-1.13-.48-2l2.11-.36a6.36,6.36,0,0,1,1.54,2,1.63,1.63,0,0,1-.17,1.83c-.21.23-.5.43-.76.66l1.25,1.19-2,.63-1.28-1.21c-.62,0-1.2,0-1.84,0a10.34,10.34,0,0,1-3.55-1,12.26,12.26,0,0,1-4-2.84c-1.15-1.26-1.4-2.25-.69-2.92a4.71,4.71,0,0,1,1.62-.91l.24-.09-3.49-3.3-.1,0a2.89,2.89,0,0,0-.16.66,2.17,2.17,0,0,0,.73,1.15l-3.27.2c-.26-.28-.52-.55-.75-.82-.84-1-1.16-1.83-.9-2.48a2.14,2.14,0,0,1,1.72-1.11c.11,0,.11-.06,0-.17-.63-.58-1.25-1.17-1.87-1.76Zm7.9,10.1c-.31.25-.71.44-.63.91s1.17,1.45,2.18,1.79a4.16,4.16,0,0,0,1.55.24Zm-.8-3.35c.27-.15.54-.27.58-.54.07-.5-1-1.45-2.1-1.85-.47-.18-.92-.28-1.44-.43Z" fill="#d1d3d4"></path><path d="M140.88,214.17l2.45,5.89c1.8,3.88-4.07,10.43-13.11,14.65s-17.84,4.48-19.65.61l-2.45-5.9Z" fill="#fff"></path><path d="M117.13,238.57c-3.49,0-6.07-1-7-3l-2.46-5.91a.51.51,0,0,1,.25-.65l32.76-15.25a.48.48,0,0,1,.39,0,.51.51,0,0,1,.28.28l2.45,5.89c1.94,4.17-3.92,10.89-13.36,15.29A33.14,33.14,0,0,1,117.13,238.57Zm-8.36-8.9,2.26,5.45c1.65,3.54,10.34,3.15,19-.87s14.52-10.42,12.86-14l-2.25-5.43Z" fill="#231f20"></path><ellipse cx="124.5" cy="221.8" rx="18.07" ry="7.74" transform="translate(-82 73.29) rotate(-24.97)" fill="#fff"></ellipse><path d="M114.65,232.66c-3.6,0-6.07-1.06-7-3-2-4.18,3.91-10.91,13.35-15.3s18.36-4.56,20.31-.37-3.91,10.91-13.35,15.31a34.13,34.13,0,0,1-12.74,3.38ZM134.38,212a32.45,32.45,0,0,0-12.94,3.28c-8.63,4-14.52,10.42-12.87,14,.78,1.66,3.22,2.54,6.64,2.44a32.9,32.9,0,0,0,12.35-3.29c8.63-4,14.52-10.42,12.86-14C139.66,212.75,137.42,212,134.38,212Z" fill="#231f20"></path><path d="M113.92,223.88l2.37-.87.13-.17c.36-.48.67-1,1.08-1.42a13.88,13.88,0,0,1,3.8-3,11.59,11.59,0,0,1,2.8-1.12,2.77,2.77,0,0,1,1.71,0,1,1,0,0,1,.62.92c0,.35.07.72.1,1.09l4.46-1.63c-.12-.72-.86-.8-2-.46l.61-2a6.45,6.45,0,0,1,2.51-.48,1.6,1.6,0,0,1,1.56,1,8,8,0,0,1,.26,1l1.62-.59-.32,2.07-1.65.62c-.28.55-.52,1.08-.84,1.64a10.32,10.32,0,0,1-2.44,2.75,11.89,11.89,0,0,1-4.31,2.31c-1.64.48-2.63.26-2.92-.67a4.7,4.7,0,0,1-.1-1.85c0-.09,0-.18,0-.26l-4.5,1.67-.08.07a2.43,2.43,0,0,0,.52.43,2.11,2.11,0,0,0,1.35-.14l-1.27,3c-.37.11-.72.22-1.06.3-1.27.32-2.16.24-2.63-.29a2.13,2.13,0,0,1-.23-2c0-.1,0-.12-.16-.06l-2.41.89Zm12.56-2.6c.09.39.08.83.53,1a3.54,3.54,0,0,0,2.58-1.16,4.16,4.16,0,0,0,.9-1.29Zm-3.36-.77c0-.3,0-.61-.23-.76-.41-.28-1.73.25-2.59,1.06-.36.34-.65.7-1,1.1Z" fill="#d1d3d4"></path><path d="M116.93,177.37c-3.56,5.93.43,19.07.43,19.07l5.27,3.84a16.69,16.69,0,0,0,17.21-28.61L134,168.8S120.49,171.45,116.93,177.37Z" fill="#fff"></path><path d="M131.2,203.17a17.15,17.15,0,0,1-8.82-2.46l-5.32-3.86a.51.51,0,0,1-.18-.26c-.17-.55-4-13.43-.38-19.48h0c3.64-6,16.82-8.69,17.38-8.8a.56.56,0,0,1,.31,0l5.86,2.87a17.2,17.2,0,0,1-8.85,31.95Zm-13.41-7,5.14,3.73a16.19,16.19,0,0,0,22.18-5.56,16.2,16.2,0,0,0-5.53-22.21l-5.67-2.77c-1.53.32-13.35,3-16.55,8.3h0C114.16,183,117.36,194.64,117.79,196.14Zm-.86-18.77h0Z" fill="#231f20"></path><circle cx="127.6" cy="183.79" r="16.69" fill="#fff"></circle><path d="M127.57,201a17.19,17.19,0,1,1,8.89-31.93h0A17.19,17.19,0,0,1,127.57,201Zm.06-33.38a16.19,16.19,0,1,0,8.31,2.31A16.19,16.19,0,0,0,127.63,167.6Z" fill="#231f20"></path><path d="M118.24,176.14l2.08,1.26c.14.08.21.07.31-.05a7.28,7.28,0,0,1,3-2,5.24,5.24,0,0,1,3.7.08c.32.13.63.28,1,.43l-1.94,3.22a2.5,2.5,0,0,0-1.62-.32,11.73,11.73,0,0,0-1.27.41v.08l4,2.42.29-.3a13.32,13.32,0,0,1,2.33-2,4.25,4.25,0,0,1,4.37-.36,5.55,5.55,0,0,1,3,2.94,5.61,5.61,0,0,1,.34,3.45c-.15.72-.39,1.43-.6,2.17l1.56.94-1.78,3-1.6-1c-.53.5-1,1-1.51,1.44a5.88,5.88,0,0,1-3.57,1.45,5.73,5.73,0,0,1-3.21-.89l1.9-3.17a2.93,2.93,0,0,0,3.52-.53l-4.31-2.58c-.53.49-1.06,1-1.6,1.48a5.35,5.35,0,0,1-2.25,1.29,4.24,4.24,0,0,1-2.61-.18,5.92,5.92,0,0,1-2.64-1.85,5.39,5.39,0,0,1-1.09-4.44c.12-.63.37-1.24.55-1.85,0-.07,0-.14.08-.22l-2.16-1.3Zm16.08,9.66a3,3,0,0,0,.22-1.67,2,2,0,0,0-2.1-1.63,3.91,3.91,0,0,0-1.81,1.09Zm-12.95-3.73a9.68,9.68,0,0,0-.1,1.48,1.85,1.85,0,0,0,2.3,1.64,4,4,0,0,0,1.38-1Z" fill="#d1d3d4"></path></g></svg>